<svg width="64" height="64" viewBox="0 0 64 64" fill="none" xmlns="http://www.w3.org/2000/svg">
<path d="M61.6852 23.2807C58.5289 13.0664 49.1502 6.91115 34.8604 4.96631C22.9794 3.34735 8.82383 7.42995 2.51398 21.1664C-3.93602 35.2052 2.70377 48.6132 14.7424 54.2757C23.794 58.5356 40.1774 61.3147 51.4277 54.6276C64.4445 46.877 64.8854 32.606 61.6852 23.2807Z" fill="#DCE9E2"/>
<path d="M39.8882 63.987L12.091 60.1077C11.779 60.0628 11.4996 59.9096 11.3137 59.6816C11.1277 59.4535 11.0503 59.169 11.0982 58.8903L19.3351 11.8855C19.3854 11.6068 19.557 11.3571 19.8123 11.1906C20.0676 11.0242 20.3862 10.9544 20.6987 10.9965L48.496 14.8758C48.8079 14.9207 49.0873 15.0738 49.2733 15.3018C49.4593 15.5299 49.5367 15.8144 49.4887 16.0932L41.2518 63.0901C41.2036 63.3703 41.0329 63.6219 40.7774 63.7899C40.5218 63.958 40.2021 64.0289 39.8882 63.987Z" fill="#70B3A7"/>
<path d="M39.4781 55.4013L46.3056 16.473L21.8836 13.0583L15.0561 51.9867L39.4781 55.4013Z" fill="white"/>
<path d="M26.4712 59.1015C27.4451 59.1015 28.2348 58.3965 28.2348 57.5268C28.2348 56.6572 27.4451 55.9521 26.4712 55.9521C25.4971 55.9521 24.7075 56.6572 24.7075 57.5268C24.7075 58.3965 25.4971 59.1015 26.4712 59.1015Z" fill="#00856F"/>
<path d="M20.9381 37.2805C20.844 37.266 20.7476 37.2685 20.6547 37.2879C20.5618 37.3072 20.4742 37.3431 20.397 37.3933C20.32 37.4434 20.255 37.507 20.2058 37.5801C20.1568 37.6532 20.1247 37.7343 20.1113 37.8186C20.098 37.903 20.1038 37.9889 20.1284 38.0712C20.1531 38.1536 20.1958 38.2306 20.2545 38.2978C20.3131 38.3652 20.3862 38.4212 20.4695 38.4628C20.5528 38.5042 20.6446 38.5304 20.7396 38.5397C21.4962 38.6335 22.2669 38.574 22.9943 38.3655C23.7217 38.1569 24.3871 37.8048 24.9412 37.3352C24.7022 36.892 24.535 36.4206 24.4448 35.9352C24.0527 36.4224 23.5194 36.8052 22.902 37.0421C22.2848 37.2791 21.6068 37.3615 20.941 37.2805H20.9381ZM25.0902 33.3048C25.1713 33.6758 25.1841 34.0562 25.1281 34.431C25.0024 35.2364 25.1192 36.057 25.4667 36.8086C25.5135 36.9156 25.572 37.0276 25.6303 37.1293C25.6887 37.231 25.7471 37.3301 25.8084 37.4239C26.0061 37.7215 26.2402 37.9986 26.5062 38.2503C26.9655 38.6808 27.5153 39.0263 28.1241 39.267C28.733 39.5077 29.389 39.639 30.0548 39.6533C30.7204 39.6676 31.3828 39.5646 32.0038 39.3502C32.6249 39.1359 33.1927 38.8144 33.6746 38.4041C33.4374 37.9606 33.2722 37.4893 33.184 37.0041C32.7927 37.4929 32.2591 37.8766 31.6408 38.1137C31.0227 38.3509 30.3435 38.4324 29.6772 38.3494C29.0107 38.2664 28.3826 38.0221 27.8606 37.6429C27.3387 37.2638 26.943 36.7642 26.7165 36.1985C26.6536 36.0415 26.6048 35.8802 26.5705 35.7162C26.4878 35.3454 26.475 34.9647 26.5326 34.5901C26.655 33.7847 26.5381 32.9648 26.1938 32.2125C26.1442 32.1055 26.0887 31.9934 26.0303 31.8944C25.972 31.7953 25.9136 31.6962 25.8493 31.5972C25.4598 31.0111 24.9277 30.5108 24.2923 30.133C23.6571 29.7553 22.9348 29.51 22.1791 29.4151C21.9915 29.3919 21.8016 29.4361 21.6507 29.5381C21.4999 29.64 21.4006 29.7913 21.3746 29.9586C21.3486 30.126 21.3983 30.2957 21.5124 30.4303C21.6265 30.565 21.796 30.6537 21.9833 30.6769C22.6489 30.7607 23.2764 31.005 23.7981 31.3836C24.3199 31.7621 24.716 32.2605 24.9441 32.825C25.009 32.9831 25.0607 33.1452 25.0989 33.31L25.0902 33.3048ZM39.4383 32.8486C39.6216 32.8647 39.8048 32.8169 39.9494 32.7152C40.0941 32.6135 40.1889 32.4657 40.2143 32.3029C40.2395 32.1401 40.1933 31.9749 40.0851 31.8418C39.9769 31.7088 39.8153 31.6183 39.634 31.5894C38.8782 31.4954 38.1084 31.5544 37.3816 31.762C36.6548 31.9696 35.9896 32.3205 35.4353 32.7886C35.6724 33.2329 35.8376 33.7053 35.9257 34.1911C36.319 33.705 36.8525 33.3234 37.4697 33.087C38.0868 32.8505 38.7641 32.7681 39.4296 32.8486H39.4383ZM33.8146 34.4127C33.8989 34.7836 33.9117 35.1644 33.8527 35.539C33.7294 36.3446 33.8473 37.1649 34.1943 37.9166C34.2449 38.0261 34.3004 38.1329 34.3607 38.2373C34.4143 38.3382 34.4737 38.4365 34.5389 38.5319C34.9273 39.1189 35.4592 39.6201 36.0946 39.9984C36.73 40.3767 37.4528 40.6221 38.2091 40.7166C38.3931 40.7345 38.5778 40.6878 38.7238 40.5863C38.87 40.4848 38.9661 40.3366 38.9919 40.1729C39.0177 40.0092 38.9711 39.843 38.8621 39.7095C38.753 39.5759 38.5901 39.4855 38.4077 39.4574C37.7409 39.3726 37.1124 39.1273 36.5899 38.748C36.0673 38.3686 35.6701 37.8695 35.441 37.3039C35.3796 37.1454 35.3298 36.9834 35.2922 36.819C35.2081 36.4482 35.1953 36.0674 35.2543 35.6928C35.3769 34.8874 35.26 34.0674 34.9154 33.3152C34.863 33.2084 34.8104 33.0962 34.752 32.9945C34.6936 32.8928 34.6353 32.7964 34.5681 32.6999C34.1792 32.1138 33.6474 31.6134 33.0122 31.2359C32.3771 30.8584 31.6549 30.6135 30.8992 30.5193C30.1436 30.4252 29.3738 30.4841 28.6472 30.692C27.9205 30.8998 27.2557 31.2511 26.7019 31.7197C26.9384 32.1639 27.1054 32.6349 27.1983 33.1197C27.5901 32.6318 28.1239 32.2488 28.742 32.0122C29.36 31.7757 30.0386 31.6944 30.7046 31.7774C31.3706 31.8604 31.9986 32.1042 32.5204 32.4829C33.0424 32.8614 33.4385 33.3602 33.6658 33.9253C33.7273 34.0847 33.7771 34.2476 33.8146 34.4127Z" fill="#008071"/>
<path d="M31.0148 1.60502e-05H5.46006C4.89397 1.60502e-05 4.35107 0.200799 3.95079 0.558194C3.55051 0.91559 3.32562 1.40032 3.32562 1.90576V15.5823C3.32562 16.0877 3.55051 16.5725 3.95079 16.9298C4.35107 17.2872 4.89397 17.488 5.46006 17.488H15.735L22.7428 23.4841L21.7443 17.488H31.0236C31.5896 17.488 32.1325 17.2872 32.5329 16.9298C32.9331 16.5725 33.158 16.0877 33.158 15.5823V1.90576C33.158 1.65483 33.1025 1.40638 32.9947 1.17465C32.8869 0.942923 32.7288 0.732488 32.5298 0.555422C32.3306 0.378354 32.0942 0.238142 31.8342 0.142831C31.5743 0.0475197 31.2959 -0.00101374 31.0148 1.60502e-05Z" fill="#00856F"/>
<path d="M11.0075 9.11674L14.6602 12.3781L23.1191 4.82556" stroke="white" stroke-width="0.912461" stroke-linecap="round" stroke-linejoin="round"/>
</svg>
